<?xml version="1.0" encoding="utf-8"?>
<!-- Generator: Adobe Illustrator 15.0.2, SVG Export Plug-In  -->
<!DOCTYPE svg PUBLIC "-//W3C//DTD SVG 1.0//EN" "http://www.w3.org/TR/2001/REC-SVG-20010904/DTD/svg10.dtd" [
	<!ENTITY ns_flows "http://ns.adobe.com/Flows/1.0/">
]>
<svg version="1.0"
	 xmlns="http://www.w3.org/2000/svg" xmlns:xlink="http://www.w3.org/1999/xlink" xmlns:a="http://ns.adobe.com/AdobeSVGViewerExtensions/3.0/"
	 x="0px" y="0px" width="67px" height="67px" viewBox="0 0 67 67" overflow="visible" enable-background="new 0 0 67 67"
	 xml:space="preserve">
<defs>
</defs>
<path d="M33.5,67C15.028,67,0,51.973,0,33.502C0,15.029,15.028,0,33.5,0C51.971,0,67,15.029,67,33.502C67,51.973,51.971,67,33.5,67z
	 M33.5,2C16.13,2,2,16.132,2,33.502C2,50.871,16.13,65,33.5,65C50.869,65,65,50.871,65,33.502C65,16.132,50.869,2,33.5,2z"/>
<path d="M24.301,49.203c-0.176,0-0.352-0.047-0.508-0.141c-0.305-0.18-0.491-0.506-0.491-0.859v-29.5
	c0-0.354,0.187-0.681,0.491-0.861c0.304-0.179,0.68-0.185,0.99-0.016l26.819,14.75c0.32,0.176,0.518,0.512,0.518,0.876
	c0,0.365-0.197,0.7-0.518,0.875l-26.819,14.75C24.632,49.162,24.467,49.203,24.301,49.203z M25.301,20.395v26.117l23.744-13.059
	L25.301,20.395z"/>
</svg>
