<?xml version="1.0" standalone="no"?>
<!DOCTYPE svg PUBLIC "-//W3C//DTD SVG 20010904//EN"
 "http://www.w3.org/TR/2001/REC-SVG-20010904/DTD/svg10.dtd">
<svg version="1.0" xmlns="http://www.w3.org/2000/svg"
 width="800.000000pt" height="800.000000pt" viewBox="0 0 800.000000 800.000000"
 preserveAspectRatio="xMidYMid meet">
<metadata>
Created by potrace 1.11, written by Peter Selinger 2001-2013
</metadata>
<g transform="translate(0.000000,800.000000) scale(0.100000,-0.100000)"
fill="#000000" stroke="none">
<path d="M520 7995 c0 -5 25 -74 40 -110 22 -52 80 -211 81 -220 0 -5 7 -21
14 -35 8 -14 24 -52 36 -85 12 -33 32 -87 44 -120 13 -33 44 -116 70 -185 25
-69 50 -134 55 -145 22 -52 72 -182 75 -196 2 -9 12 -38 23 -65 11 -27 32 -78
45 -114 75 -198 90 -237 97 -255 4 -11 22 -56 38 -100 17 -44 48 -127 70 -185
57 -147 146 -382 176 -465 15 -38 30 -79 35 -90 6 -11 20 -49 32 -85 12 -36
25 -69 29 -75 4 -5 17 -39 29 -75 12 -36 29 -80 38 -99 8 -18 16 -39 17 -45 1
-10 38 -108 57 -151 12 -30 80 -209 83 -220 2 -5 8 -23 15 -40 6 -16 20 -52
31 -80 10 -27 37 -97 59 -155 22 -58 90 -238 151 -400 61 -162 115 -304 120
-315 5 -11 28 -69 50 -130 22 -60 44 -117 47 -125 3 -8 7 -17 7 -20 1 -3 9
-26 19 -52 l19 -48 418 0 418 0 13 33 c8 17 14 34 15 37 0 3 4 14 8 25 5 11
24 63 43 115 20 52 39 104 44 115 5 11 34 88 64 170 31 83 60 159 65 170 5 11
30 76 55 145 25 69 49 134 54 145 5 11 14 34 19 50 14 41 121 325 132 350 9
20 78 201 84 220 2 6 6 17 9 25 34 85 100 268 100 278 0 6 4 12 9 12 4 0 8 5
8 11 0 9 69 201 97 269 4 8 7 17 8 20 9 26 18 48 26 62 5 10 9 22 9 28 0 6 7
27 17 48 9 20 17 39 18 42 7 29 29 87 35 95 8 10 10 15 10 38 0 15 36 -62 57
-123 8 -25 23 -63 33 -85 10 -22 32 -78 50 -125 17 -47 35 -94 40 -105 5 -11
19 -45 30 -75 11 -30 24 -64 29 -75 12 -26 55 -138 57 -145 0 -3 6 -18 13 -35
7 -16 23 -57 36 -90 40 -107 166 -429 176 -450 15 -35 139 -355 139 -361 0 -3
11 -30 25 -60 14 -30 25 -59 25 -64 0 -6 8 -29 19 -53 10 -23 38 -91 61 -152
23 -60 46 -119 51 -130 4 -11 18 -45 29 -75 11 -30 24 -64 29 -75 5 -11 27
-65 48 -120 l39 -100 419 0 419 0 49 130 c26 72 49 135 51 140 2 6 6 17 9 25
4 8 17 44 30 80 13 36 43 117 66 180 23 63 48 131 56 150 30 79 40 105 40 110
0 3 3 10 6 15 4 6 14 35 24 65 10 30 20 60 24 65 3 6 6 12 7 15 0 3 3 12 7 20
3 8 15 42 26 75 12 33 25 69 30 80 5 11 17 45 29 75 11 30 36 98 55 150 20 52
74 199 120 325 47 127 115 310 151 408 36 98 66 180 66 183 0 3 6 20 14 37 14
30 75 195 187 507 27 74 54 143 59 152 6 10 10 23 10 29 0 6 6 25 14 42 8 18
24 59 35 92 12 33 25 69 30 80 5 11 19 49 31 85 12 36 28 76 35 90 7 14 13 29
13 33 0 4 5 20 10 35 6 15 29 77 52 137 23 61 43 115 44 120 2 6 8 23 14 38 7
16 12 33 12 38 0 5 4 17 10 27 5 9 44 112 85 227 42 116 80 219 85 230 10 21
70 186 70 192 0 2 -257 3 -570 3 -535 0 -571 -1 -576 -17 -4 -10 -14 -40 -24
-68 -27 -71 -33 -89 -36 -100 -1 -5 -28 -82 -59 -170 -32 -88 -85 -241 -120
-340 -35 -99 -95 -270 -135 -380 -39 -110 -73 -207 -75 -215 -2 -8 -9 -28 -16
-45 -7 -16 -13 -32 -14 -35 -1 -3 -18 -57 -39 -120 -21 -63 -40 -124 -43 -135
-9 -40 -11 -50 -13 -50 -1 0 -3 -7 -5 -15 -1 -8 -22 -85 -45 -170 -23 -85 -43
-162 -45 -170 -2 -8 -8 -27 -14 -42 -6 -16 -8 -28 -6 -28 2 0 0 -12 -6 -27 -6
-16 -12 -36 -14 -45 -5 -26 -36 -141 -42 -158 -4 -8 -7 -19 -8 -25 -2 -5 -22
-80 -45 -165 -22 -85 -43 -162 -45 -170 -2 -8 -4 -15 -5 -15 -1 0 -3 -11 -6
-25 -2 -14 -8 -36 -13 -50 -5 -14 -13 -38 -17 -55 -4 -16 -8 -32 -9 -35 0 -3
-7 -29 -14 -59 -9 -35 -16 -49 -21 -40 -4 8 -35 93 -69 189 -34 96 -66 184
-70 195 -5 11 -19 49 -31 85 -12 36 -26 74 -30 85 -4 11 -13 36 -20 55 -7 19
-16 44 -20 55 -5 11 -19 49 -30 85 -12 36 -26 74 -30 85 -5 11 -41 110 -80
220 -39 110 -75 208 -80 217 -6 10 -10 25 -10 33 0 8 -4 23 -10 33 -5 9 -37
96 -71 192 -34 96 -77 218 -96 270 -19 52 -37 105 -40 118 -3 12 -9 25 -14 28
-5 3 -9 16 -9 29 0 13 -4 27 -10 30 -5 3 -10 16 -10 29 0 12 -4 26 -9 32 -5 5
-16 34 -26 64 -10 30 -20 60 -24 65 -3 6 -6 15 -7 20 -2 9 -113 320 -154 430
-10 28 -30 84 -45 125 -15 41 -36 97 -46 124 -11 27 -19 55 -19 62 0 12 -59
14 -340 14 -323 0 -340 -1 -340 -18 0 -10 -3 -22 -7 -26 -4 -3 -8 -14 -9 -23
-2 -10 -7 -26 -13 -38 -5 -11 -19 -49 -31 -85 -11 -36 -24 -72 -27 -80 -3 -8
-7 -19 -8 -25 -2 -5 -23 -68 -48 -140 -25 -71 -59 -170 -76 -220 -16 -49 -39
-114 -50 -143 -11 -29 -20 -55 -21 -57 -1 -6 -2 -9 -55 -165 -38 -110 -83
-244 -90 -270 -1 -3 -6 -16 -12 -30 -5 -14 -36 -101 -67 -195 -32 -93 -60
-177 -63 -185 -13 -35 -186 -540 -204 -595 -11 -33 -24 -69 -29 -80 -5 -11
-41 -117 -80 -235 -39 -118 -75 -222 -79 -230 -5 -8 -16 -41 -25 -73 -9 -31
-20 -57 -24 -57 -4 0 -31 87 -61 193 -55 197 -70 251 -79 277 -3 8 -6 20 -8
25 -19 74 -25 98 -39 145 -9 30 -25 87 -36 125 -11 39 -21 75 -23 80 -1 6 -8
30 -15 55 -7 25 -17 59 -22 75 -5 17 -36 127 -70 245 -33 118 -74 251 -91 295
-16 44 -32 86 -33 95 -2 8 -18 51 -35 95 -17 44 -41 107 -52 140 -11 33 -26
74 -33 90 -7 17 -18 46 -25 65 -7 19 -16 44 -21 55 -4 11 -31 83 -60 160 -28
77 -64 176 -81 220 -16 44 -31 85 -32 90 -2 6 -8 24 -15 40 -11 27 -26 68 -66
180 -8 22 -30 81 -48 130 l-34 90 -571 3 c-315 1 -572 0 -572 -3z"/>
<path d="M573 682 l-63 -3 0 -339 0 -340 3490 0 3490 0 0 340 0 340 -47 0
c-240 3 -6823 4 -6870 2z"/>
</g>
</svg>
