<?xml version="1.0" encoding="utf-8"?>
<!-- Generator: Adobe Illustrator 15.0.2, SVG Export Plug-In  -->
<!DOCTYPE svg PUBLIC "-//W3C//DTD SVG 1.0//EN" "http://www.w3.org/TR/2001/REC-SVG-20010904/DTD/svg10.dtd" [
	<!ENTITY ns_flows "http://ns.adobe.com/Flows/1.0/">
]>
<svg version="1.0"
	 xmlns="http://www.w3.org/2000/svg" xmlns:xlink="http://www.w3.org/1999/xlink" xmlns:a="http://ns.adobe.com/AdobeSVGViewerExtensions/3.0/"
	 x="0px" y="0px" width="40px" height="40px" viewBox="0 0.004 40 40" overflow="visible" enable-background="new 0 0.004 40 40"
	 xml:space="preserve">
<defs>
</defs>
<path d="M20,0C8.972,0,0,8.972,0,20c0,11.028,8.972,20,20,20c11.028,0,20-8.972,20-20C40,8.972,31.028,0,20,0z M20,2
	c4.604,0,8.797,1.752,11.983,4.606l-8.145,8.145V9.6c0-0.366-0.2-0.703-0.521-0.878c-0.322-0.175-0.712-0.161-1.021,0.037
	l-8.562,5.516h-5.09c-0.552,0-1,0.448-1,1v9.459c0,0.553,0.448,1,1,1h4.211l-6.25,6.25C3.752,28.797,2,24.604,2,20
	C2,10.075,10.075,2,20,2z M14.648,23.942l-0.077-0.05c-0.162-0.104-0.35-0.159-0.542-0.159H9.646v-7.459h4.384
	c0.192,0,0.38-0.055,0.542-0.159l7.268-4.682v5.318L14.648,23.942z M21.839,19.579v8.995l-5.471-3.524L21.839,19.579z M20,38
	c-4.603,0-8.793-1.751-11.979-4.603l6.9-6.9l7.376,4.752c0.165,0.105,0.354,0.159,0.542,0.159c0.164,0,0.329-0.04,0.479-0.122
	c0.321-0.175,0.521-0.512,0.521-0.878V17.579l3.962-3.962c1.631,1.706,2.554,3.985,2.554,6.389c0,2.715-1.172,5.274-3.217,7.022
	c-0.419,0.358-0.469,0.99-0.109,1.41c0.197,0.23,0.478,0.35,0.76,0.35c0.23,0,0.462-0.079,0.65-0.24
	c2.488-2.128,3.916-5.242,3.916-8.542c0-2.937-1.137-5.722-3.141-7.801l4.184-4.184C36.249,11.207,38,15.397,38,20
	C38,29.925,29.925,38,20,38z"/>
</svg>
