<?xml version="1.0" encoding="utf-8"?>
<!-- Generator: Adobe Illustrator 15.0.2, SVG Export Plug-In  -->
<!DOCTYPE svg PUBLIC "-//W3C//DTD SVG 1.0//EN" "http://www.w3.org/TR/2001/REC-SVG-20010904/DTD/svg10.dtd" [
	<!ENTITY ns_flows "http://ns.adobe.com/Flows/1.0/">
]>
<svg version="1.0"
	 xmlns="http://www.w3.org/2000/svg" xmlns:xlink="http://www.w3.org/1999/xlink" xmlns:a="http://ns.adobe.com/AdobeSVGViewerExtensions/3.0/"
	 x="0px" y="0px" width="40px" height="40px" viewBox="0 0.004 40 40" overflow="visible" enable-background="new 0 0.004 40 40"
	 xml:space="preserve">
<defs>
</defs>
<path fill="#222221" d="M20,40C8.972,40,0,31.028,0,20S8.972,0,20,0c11.028,0,20,8.972,20,20S31.028,40,20,40z M20,2
	C10.075,2,2,10.075,2,20s8.075,18,18,18c9.925,0,18-8.075,18-18S29.925,2,20,2z"/>
<path fill="#222221" d="M22.839,31.409c-0.188,0-0.377-0.054-0.542-0.159l-8.562-5.517H8.646c-0.552,0-1-0.447-1-1v-9.458
	c0-0.552,0.448-1,1-1h5.089l8.562-5.516c0.309-0.199,0.698-0.213,1.021-0.037c0.321,0.175,0.521,0.512,0.521,0.878v20.809
	c0,0.366-0.2,0.703-0.521,0.878C23.168,31.369,23.003,31.409,22.839,31.409z M9.646,23.733h4.384c0.192,0,0.38,0.056,0.542,0.159
	l7.268,4.683V11.433l-7.268,4.682c-0.162,0.104-0.35,0.159-0.542,0.159H9.646V23.733z M27.787,28.788
	c-0.282,0-0.562-0.119-0.761-0.351c-0.358-0.42-0.309-1.051,0.111-1.41c2.044-1.746,3.217-4.306,3.217-7.022
	c0-2.714-1.173-5.274-3.219-7.022c-0.42-0.359-0.47-0.99-0.111-1.41c0.36-0.421,0.991-0.469,1.41-0.111
	c2.491,2.128,3.92,5.242,3.92,8.542c0,3.302-1.428,6.416-3.918,8.543C28.248,28.708,28.018,28.788,27.787,28.788z"/>
</svg>
