<?xml version="1.0" encoding="utf-8"?>
<!-- Generator: Adobe Illustrator 15.0.2, SVG Export Plug-In  -->
<!DOCTYPE svg PUBLIC "-//W3C//DTD SVG 1.0//EN" "http://www.w3.org/TR/2001/REC-SVG-20010904/DTD/svg10.dtd" [
	<!ENTITY ns_flows "http://ns.adobe.com/Flows/1.0/">
]>
<svg version="1.0"
	 xmlns="http://www.w3.org/2000/svg" xmlns:xlink="http://www.w3.org/1999/xlink" xmlns:a="http://ns.adobe.com/AdobeSVGViewerExtensions/3.0/"
	 x="0px" y="0px" width="40px" height="35px" viewBox="-0.473 -0.498 40 35"
	 overflow="visible" enable-background="new -0.473 -0.498 40 35" xml:space="preserve">
<defs>
</defs>
<polyline points="38.529,34.207 38.529,28.646 30.301,28.646 30.301,1.705 23.703,1.705 23.703,34.207 38.529,34.207 "/>
<polygon points="38.529,34.207 38.529,28.646 30.301,28.646 30.301,1.705 23.703,1.705 23.703,34.207 "/>
<polygon fill="none" stroke="#FFFFFF" stroke-width="0.4209" stroke-miterlimit="22.9256" points="38.529,34.207 38.529,28.646 
	30.301,28.646 30.301,1.704 23.703,1.704 23.703,34.207 "/>
<path d="M28.217,22.992c0-3.316-1.443-4.521-2.661-5.699c-1.283-1.239-3.092-1.932-5.228-2.393c1.91-0.537,3.725-1.31,4.668-2.536
	c0.948-1.229,1.931-2.794,1.931-4.701c0-1.947-1.101-3.375-1.977-4.411c-0.875-1.036-3.365-1.833-5.185-2.223
	c-1.82-0.388-7.052-0.82-9.686-0.82H5.053v4.751L6.904,5.69v26.333h5.753c4.289,0,10.192-1.464,11.929-2.935
	C26.319,27.621,28.217,25.982,28.217,22.992L28.217,22.992z M20.259,7.686c0,1.237-1.121,3.074-1.862,3.674
	c-0.742,0.6-2.393,1.508-3.97,1.508h-2.84V3.446h2.84c1.539,0,2.693,0.509,3.455,0.915C18.643,4.768,20.259,6.451,20.259,7.686
	L20.259,7.686z M21.252,22.414c0.046,1.536-1.079,3.454-2.678,4.534c-1.6,1.081-2.985,1.201-4.146,1.201h-2.84V17.633h2.84
	c1.725,0,2.872,0.37,3.85,0.929C19.255,19.122,21.206,20.879,21.252,22.414"/>
<path d="M28.217,22.992c0-3.316-1.443-4.521-2.661-5.699c-1.283-1.239-3.092-1.932-5.228-2.393c1.91-0.537,3.725-1.31,4.668-2.536
	c0.948-1.229,1.931-2.794,1.931-4.701c0-1.947-1.101-3.375-1.977-4.411c-0.875-1.036-3.365-1.833-5.185-2.223
	c-1.82-0.388-7.052-0.82-9.686-0.82H5.053v4.751L6.904,5.69v26.333h5.753c4.289,0,10.192-1.464,11.929-2.935
	C26.319,27.621,28.217,25.982,28.217,22.992L28.217,22.992z M20.259,7.686c0,1.237-1.121,3.074-1.862,3.674
	c-0.742,0.6-2.393,1.508-3.97,1.508h-2.84V3.446h2.84c1.539,0,2.693,0.509,3.455,0.915C18.645,4.768,20.259,6.451,20.259,7.686
	L20.259,7.686z M21.252,22.414c0.046,1.536-1.079,3.454-2.678,4.534c-1.6,1.081-2.985,1.201-4.146,1.201h-2.84V17.633h2.84
	c1.725,0,2.872,0.37,3.85,0.929C19.255,19.122,21.206,20.879,21.252,22.414L21.252,22.414z"/>
<path fill="none" stroke="#FFFFFF" stroke-width="0.4209" stroke-miterlimit="22.9256" d="M28.217,22.992
	c0-3.316-1.443-4.521-2.661-5.699c-1.283-1.239-3.092-1.932-5.228-2.393c1.91-0.537,3.725-1.309,4.668-2.535
	c0.948-1.229,1.931-2.794,1.931-4.701c0-1.948-1.101-3.375-1.977-4.411c-0.875-1.036-3.365-1.833-5.185-2.223
	c-1.82-0.388-7.052-0.82-9.686-0.82H5.053v4.751l1.851,0.728v26.333h5.753c4.289,0,10.192-1.464,11.929-2.935
	C26.319,27.621,28.217,25.982,28.217,22.992L28.217,22.992z M20.259,7.686c0,1.237-1.121,3.074-1.862,3.673
	c-0.742,0.6-2.393,1.508-3.97,1.508h-2.84V3.446h2.84c1.539,0,2.693,0.509,3.455,0.916C18.645,4.768,20.259,6.451,20.259,7.686
	L20.259,7.686z M21.252,22.414c0.046,1.536-1.079,3.454-2.678,4.534c-1.6,1.081-2.985,1.201-4.146,1.201h-2.84V17.633h2.84
	c1.725,0,2.872,0.37,3.85,0.929C19.255,19.123,21.206,20.879,21.252,22.414L21.252,22.414z"/>
<polyline points="6.905,34.226 6.905,8.289 0.308,9.018 0.308,34.226 6.905,34.226 "/>
<polygon points="6.905,34.226 6.905,8.289 0.308,9.018 0.308,34.226 "/>
<polygon fill="none" stroke="#FFFFFF" stroke-width="0.4209" stroke-miterlimit="22.9256" points="6.905,34.226 6.905,8.289 
	0.308,9.017 0.308,34.226 "/>
<polyline points="6.885,8.244 6.97,1.556 0.21,1.556 0.21,8.972 6.885,8.244 "/>
<polygon points="6.885,8.244 6.97,1.556 0.21,1.556 0.21,8.972 "/>
<polygon fill="none" stroke="#FFFFFF" stroke-width="0.4209" stroke-miterlimit="22.9256" points="6.885,8.244 6.97,1.556 
	0.21,1.556 0.21,8.972 "/>
</svg>
